# Wavefront OBJ file automatically generated by Tiled2Unity

# Vertices (Count = 245)
v -192 -96 0
v -224 -96 0
v -224 -64 0
v -192 -64 0
v -256 -96 0
v -256 -64 0
v -288 -96 0
v -288 -64 0
v -192 -128 0
v -224 -128 0
v -256 -128 0
v -288 -128 0
v -224 -160 0
v -256 -160 0
v -224 -192 0
v -256 -192 0
v -224 -224 0
v -256 -224 0
v -288 -224 0
v -288 -192 0
v -224 -256 0
v -256 -256 0
v -288 -256 0
v -256 -288 0
v -288 -288 0
v -320 -288 0
v -320 -256 0
v -352 -288 0
v -352 -256 0
v -704 -288 0
v -736 -288 0
v -736 -256 0
v -704 -256 0
v -768 -288 0
v -768 -256 0
v -256 -320 0
v -288 -320 0
v -320 -320 0
v -352 -320 0
v -736 -320 0
v -768 -320 0
v -800 -320 0
v -800 -288 0
v -736 -352 0
v -768 -352 0
v -800 -352 0
v -768 -384 0
v -800 -384 0
v -512 -416 0
v -544 -416 0
v -544 -384 0
v -512 -384 0
v -576 -416 0
v -576 -384 0
v -608 -416 0
v -608 -384 0
v -768 -416 0
v -800 -416 0
v -224 -480 0
v -256 -480 0
v -256 -448 0
v -224 -448 0
v -288 -480 0
v -288 -448 0
v -320 -480 0
v -320 -448 0
v -352 -480 0
v -352 -448 0
v -384 -480 0
v -384 -448 0
v -416 -480 0
v -416 -448 0
v -448 -480 0
v -448 -448 0
v -608 -480 0
v -640 -480 0
v -640 -448 0
v -608 -448 0
v -672 -480 0
v -672 -448 0
v -704 -480 0
v -704 -448 0
v -288 -160 0
v -320 -160 0
v -320 -128 0
v -320 -192 0
v -704 -192 0
v -736 -192 0
v -736 -160 0
v -704 -160 0
v -768 -192 0
v -768 -160 0
v -800 -192 0
v -800 -160 0
v -320 -224 0
v -448 -224 0
v -480 -224 0
v -480 -192 0
v -448 -192 0
v -512 -224 0
v -512 -192 0
v -544 -224 0
v -544 -192 0
v -704 -224 0
v -736 -224 0
v -768 -224 0
v -800 -224 0
v -448 -256 0
v -480 -256 0
v -512 -256 0
v -544 -256 0
v -800 -256 0
v -224 -288 0
v -480 -288 0
v -512 -288 0
v -832 -288 0
v -832 -256 0
v -448 -320 0
v -480 -320 0
v -448 -288 0
v -512 -320 0
v -544 -320 0
v -544 -288 0
v -576 -320 0
v -576 -288 0
v -832 -320 0
v -256 -352 0
v -288 -352 0
v -320 -352 0
v -480 -352 0
v -512 -352 0
v -544 -352 0
v -832 -352 0
v -224 -384 0
v -256 -384 0
v -224 -352 0
v -288 -384 0
v -320 -384 0
v -480 -384 0
v -704 -384 0
v -736 -384 0
v -704 -352 0
v -256 -416 0
v -288 -416 0
v -480 -416 0
v -736 -416 0
v -416 -416 0
v -384 -416 0
v -448 -416 0
v -480 -448 0
v -512 -448 0
v -544 -448 0
v -576 -448 0
v -640 -416 0
v -736 -448 0
v -768 -448 0
v -800 -448 0
v -480 -480 0
v -512 -480 0
v -544 -480 0
v -576 -480 0
v -736 -480 0
v -768 -480 0
v -128 -512 0
v -160 -512 0
v -160 -480 0
v -128 -480 0
v -192 -512 0
v -192 -480 0
v -224 -512 0
v -256 -512 0
v -288 -512 0
v -320 -512 0
v -352 -512 0
v -384 -512 0
v -416 -512 0
v -448 -512 0
v -480 -512 0
v -512 -512 0
v -544 -512 0
v -576 -512 0
v -608 -512 0
v -640 -512 0
v -672 -512 0
v -704 -512 0
v -736 -512 0
v -768 -512 0
v -800 -512 0
v -800 -480 0
v -832 -512 0
v -832 -480 0
v -864 -512 0
v -864 -480 0
v -896 -512 0
v -896 -480 0
v -128 -544 0
v -160 -544 0
v -192 -544 0
v -224 -544 0
v -256 -544 0
v -288 -544 0
v -320 -544 0
v -352 -544 0
v -384 -544 0
v -416 -544 0
v -448 -544 0
v -480 -544 0
v -512 -544 0
v -544 -544 0
v -576 -544 0
v -608 -544 0
v -640 -544 0
v -672 -544 0
v -704 -544 0
v -736 -544 0
v -768 -544 0
v -800 -544 0
v -832 -544 0
v -864 -544 0
v -896 -544 0
v -128 -576 0
v -160 -576 0
v -192 -576 0
v -224 -576 0
v -256 -576 0
v -288 -576 0
v -320 -576 0
v -352 -576 0
v -384 -576 0
v -416 -576 0
v -448 -576 0
v -480 -576 0
v -512 -576 0
v -544 -576 0
v -576 -576 0
v -608 -576 0
v -640 -576 0
v -672 -576 0
v -704 -576 0
v -736 -576 0
v -768 -576 0
v -800 -576 0
v -832 -576 0
v -864 -576 0
v -896 -576 0

# Texture Coorindates (Count = 204)
vt 0.2401221 0.7867888
vt 0.2798779 0.7867888
vt 0.2798779 0.8398779
vt 0.2401221 0.8398779
vt 0.2801221 0.7867888
vt 0.3198779 0.7867888
vt 0.3198779 0.8398779
vt 0.2801221 0.8398779
vt 0.3201221 0.7867888
vt 0.3598779 0.7867888
vt 0.3598779 0.8398779
vt 0.3201221 0.8398779
vt 0.2401221 0.7334554
vt 0.2798779 0.7334554
vt 0.2798779 0.7865446
vt 0.2401221 0.7865446
vt 0.2801221 0.7334554
vt 0.3198779 0.7334554
vt 0.3198779 0.7865446
vt 0.2801221 0.7865446
vt 0.3201221 0.7334554
vt 0.3598779 0.7334554
vt 0.3598779 0.7865446
vt 0.3201221 0.7865446
vt 0.2801221 0.5734554
vt 0.3198779 0.5734554
vt 0.3198779 0.6265446
vt 0.2801221 0.6265446
vt 0.2801221 0.5201221
vt 0.3198779 0.5201221
vt 0.3198779 0.5732113
vt 0.2801221 0.5732113
vt 0.4001221 0.6267887
vt 0.4398779 0.6267887
vt 0.4398779 0.6798779
vt 0.4001221 0.6798779
vt 0.4401221 0.6267887
vt 0.4798779 0.6267887
vt 0.4798779 0.6798779
vt 0.4401221 0.6798779
vt 0.4001221 0.5734554
vt 0.4398779 0.5734554
vt 0.4398779 0.6265446
vt 0.4001221 0.6265446
vt 0.4401221 0.5734554
vt 0.4798779 0.5734554
vt 0.4798779 0.6265446
vt 0.4401221 0.6265446
vt 0.3601221 0.7867888
vt 0.3998779 0.7867888
vt 0.3998779 0.8398779
vt 0.3601221 0.8398779
vt 0.4001221 0.7867888
vt 0.4398779 0.7867888
vt 0.4398779 0.8398779
vt 0.4001221 0.8398779
vt 0.4401221 0.7867888
vt 0.4798779 0.7867888
vt 0.4798779 0.8398779
vt 0.4401221 0.8398779
vt 0.2401221 0.6267887
vt 0.2798779 0.6267887
vt 0.2798779 0.6798779
vt 0.2401221 0.6798779
vt 0.2801221 0.6267887
vt 0.3198779 0.6267887
vt 0.3198779 0.6798779
vt 0.2801221 0.6798779
vt 0.3601221 0.7334554
vt 0.3998779 0.7334554
vt 0.3998779 0.7865446
vt 0.3601221 0.7865446
vt 0.4001221 0.7334554
vt 0.4398779 0.7334554
vt 0.4398779 0.7865446
vt 0.4001221 0.7865446
vt 0.4401221 0.7334554
vt 0.4798779 0.7334554
vt 0.4798779 0.7865446
vt 0.4401221 0.7865446
vt 0.04012207 0.9467887
vt 0.07987793 0.9467887
vt 0.07987793 0.9998779
vt 0.04012207 0.9998779
vt 0.08012207 0.9467887
vt 0.1198779 0.9467887
vt 0.1198779 0.9998779
vt 0.08012207 0.9998779
vt 0.1201221 0.9467887
vt 0.1598779 0.9467887
vt 0.1598779 0.9998779
vt 0.1201221 0.9998779
vt 0.2401221 0.6801221
vt 0.2798779 0.6801221
vt 0.2798779 0.7332113
vt 0.2401221 0.7332113
vt 0.2801221 0.6801221
vt 0.3198779 0.6801221
vt 0.3198779 0.7332113
vt 0.2801221 0.7332113
vt 0.3201221 0.6801221
vt 0.3598779 0.6801221
vt 0.3598779 0.7332113
vt 0.3201221 0.7332113
vt 0.3601221 0.5201221
vt 0.3998779 0.5201221
vt 0.3998779 0.5732113
vt 0.3601221 0.5732113
vt 0.4001221 0.5201221
vt 0.4398779 0.5201221
vt 0.4398779 0.5732113
vt 0.4001221 0.5732113
vt 0.3201221 0.840122
vt 0.3598779 0.840122
vt 0.3598779 0.8932112
vt 0.3201221 0.8932112
vt 0.3601221 0.840122
vt 0.3998779 0.840122
vt 0.3998779 0.8932112
vt 0.3601221 0.8932112
vt 0.4001221 0.840122
vt 0.4398779 0.840122
vt 0.4398779 0.8932112
vt 0.4001221 0.8932112
vt 0.4001221 0.4667887
vt 0.4398779 0.4667887
vt 0.4398779 0.5198779
vt 0.4001221 0.5198779
vt 0.4401221 0.4667887
vt 0.4798779 0.4667887
vt 0.4798779 0.5198779
vt 0.4401221 0.5198779
vt 0.2801221 0.4667887
vt 0.3198779 0.4667887
vt 0.3198779 0.5198779
vt 0.2801221 0.5198779
vt 0.0001220703 0.5734554
vt 0.03987793 0.5734554
vt 0.03987793 0.6265446
vt 0.0001220703 0.6265446
vt 0.04012207 0.5734554
vt 0.07987793 0.5734554
vt 0.07987793 0.6265446
vt 0.04012207 0.6265446
vt 0.08012207 0.5734554
vt 0.1198779 0.5734554
vt 0.1198779 0.6265446
vt 0.08012207 0.6265446
vt 0.2001221 0.8934554
vt 0.2398779 0.8934554
vt 0.2398779 0.9465446
vt 0.2001221 0.9465446
vt 0.0001220703 0.7867888
vt 0.03987793 0.7867888
vt 0.03987793 0.8398779
vt 0.0001220703 0.8398779
vt 0.2401221 0.8934554
vt 0.2798779 0.8934554
vt 0.2798779 0.9465446
vt 0.2401221 0.9465446
vt 0.08012207 0.6801221
vt 0.1198779 0.6801221
vt 0.1198779 0.7332113
vt 0.08012207 0.7332113
vt 0.04012207 0.6801221
vt 0.07987793 0.6801221
vt 0.07987793 0.7332113
vt 0.04012207 0.7332113
vt 0.0001220703 0.5201221
vt 0.03987793 0.5201221
vt 0.03987793 0.5732113
vt 0.0001220703 0.5732113
vt 0.04012207 0.5201221
vt 0.07987793 0.5201221
vt 0.07987793 0.5732113
vt 0.04012207 0.5732113
vt 0.08012207 0.5201221
vt 0.1198779 0.5201221
vt 0.1198779 0.5732113
vt 0.08012207 0.5732113
vt 0.04012207 0.840122
vt 0.07987793 0.840122
vt 0.07987793 0.8932112
vt 0.04012207 0.8932112
vt 0.08012207 0.840122
vt 0.1198779 0.840122
vt 0.1198779 0.8932112
vt 0.08012207 0.8932112
vt 0.1201221 0.6801221
vt 0.1598779 0.6801221
vt 0.1598779 0.7332113
vt 0.1201221 0.7332113
vt 0.08012207 0.7867888
vt 0.1198779 0.7867888
vt 0.1198779 0.8398779
vt 0.08012207 0.8398779
vt 0.1601221 0.6801221
vt 0.1998779 0.6801221
vt 0.1998779 0.7332113
vt 0.1601221 0.7332113
vt 0.1201221 0.840122
vt 0.1598779 0.840122
vt 0.1598779 0.8932112
vt 0.1201221 0.8932112

# Normal
vn 0 0 -1

# Groups (Count = 2)
g mesh_[00]_[00]
f  1/1/1  2/2/1  3/3/1  4/4/1 
f  2/5/1  5/6/1  6/7/1  3/8/1 
f  5/9/1  7/10/1  8/11/1  6/12/1 
f  9/13/1  10/14/1  2/15/1  1/16/1 
f  10/17/1  11/18/1  5/19/1  2/20/1 
f  11/21/1  12/22/1  7/23/1  5/24/1 
f  13/25/1  14/26/1  11/27/1  10/28/1 
f  15/29/1  16/30/1  14/31/1  13/32/1 
f  17/33/1  18/34/1  16/35/1  15/36/1 
f  18/37/1  19/38/1  20/39/1  16/40/1 
f  21/41/1  22/42/1  18/43/1  17/44/1 
f  22/45/1  23/46/1  19/47/1  18/48/1 
f  24/49/1  25/50/1  23/51/1  22/52/1 
f  25/53/1  26/54/1  27/55/1  23/56/1 
f  26/57/1  28/58/1  29/59/1  27/60/1 
f  30/61/1  31/62/1  32/63/1  33/64/1 
f  31/65/1  34/66/1  35/67/1  32/68/1 
f  36/69/1  37/70/1  25/71/1  24/72/1 
f  37/73/1  38/74/1  26/75/1  25/76/1 
f  38/77/1  39/78/1  28/79/1  26/80/1 
f  40/25/1  41/26/1  34/27/1  31/28/1 
f  41/25/1  42/26/1  43/27/1  34/28/1 
f  44/29/1  45/30/1  41/31/1  40/32/1 
f  45/25/1  46/26/1  42/27/1  41/28/1 
f  47/29/1  48/30/1  46/31/1  45/32/1 
f  49/81/1  50/82/1  51/83/1  52/84/1 
f  50/85/1  53/86/1  54/87/1  51/88/1 
f  53/89/1  55/90/1  56/91/1  54/92/1 
f  57/29/1  58/30/1  48/31/1  47/32/1 
f  59/81/1  60/82/1  61/83/1  62/84/1 
f  60/85/1  63/86/1  64/87/1  61/88/1 
f  63/85/1  65/86/1  66/87/1  64/88/1 
f  65/85/1  67/86/1  68/87/1  66/88/1 
f  67/85/1  69/86/1  70/87/1  68/88/1 
f  69/85/1  71/86/1  72/87/1  70/88/1 
f  71/85/1  73/86/1  74/87/1  72/88/1 
f  75/85/1  76/86/1  77/87/1  78/88/1 
f  76/85/1  79/86/1  80/87/1  77/88/1 
f  79/89/1  81/90/1  82/91/1  80/92/1 
g mesh_[01]_[00]
f  13/1/1  14/2/1  11/3/1  10/4/1 
f  14/5/1  83/6/1  12/7/1  11/8/1 
f  83/9/1  84/10/1  85/11/1  12/12/1 
f  15/13/1  16/14/1  14/15/1  13/16/1 
f  16/17/1  20/18/1  83/19/1  14/20/1 
f  20/21/1  86/22/1  84/23/1  83/24/1 
f  87/1/1  88/2/1  89/3/1  90/4/1 
f  88/5/1  91/6/1  92/7/1  89/8/1 
f  91/9/1  93/10/1  94/11/1  92/12/1 
f  17/93/1  18/94/1  16/95/1  15/96/1 
f  18/97/1  19/98/1  20/99/1  16/100/1 
f  19/101/1  95/102/1  86/103/1  20/104/1 
f  96/1/1  97/2/1  98/3/1  99/4/1 
f  97/5/1  100/6/1  101/7/1  98/8/1 
f  100/9/1  102/10/1  103/11/1  101/12/1 
f  104/13/1  105/14/1  88/15/1  87/16/1 
f  105/17/1  106/18/1  91/19/1  88/20/1 
f  106/21/1  107/22/1  93/23/1  91/24/1 
f  22/25/1  23/26/1  19/27/1  18/28/1 
f  108/13/1  109/14/1  97/15/1  96/16/1 
f  109/17/1  110/18/1  100/19/1  97/20/1 
f  110/21/1  111/22/1  102/23/1  100/24/1 
f  33/93/1  32/94/1  105/95/1  104/96/1 
f  32/97/1  35/98/1  106/99/1  105/100/1 
f  35/101/1  112/102/1  107/103/1  106/104/1 
f  113/105/1  24/106/1  22/107/1  21/108/1 
f  24/109/1  25/110/1  23/111/1  22/112/1 
f  114/29/1  115/30/1  110/31/1  109/32/1 
f  30/61/1  31/62/1  32/63/1  33/64/1 
f  31/1/1  34/2/1  35/3/1  32/4/1 
f  34/5/1  43/6/1  112/7/1  35/8/1 
f  43/9/1  116/10/1  117/11/1  112/12/1 
f  36/29/1  37/30/1  25/31/1  24/32/1 
f  118/113/1  119/114/1  114/115/1  120/116/1 
f  119/117/1  121/118/1  115/119/1  114/120/1 
f  121/117/1  122/118/1  123/119/1  115/120/1 
f  122/121/1  124/122/1  125/123/1  123/124/1 
f  40/13/1  41/14/1  34/15/1  31/16/1 
f  41/17/1  42/18/1  43/19/1  34/20/1 
f  42/21/1  126/22/1  116/23/1  43/24/1 
f  127/125/1  128/126/1  37/127/1  36/128/1 
f  128/129/1  129/130/1  38/131/1  37/132/1 
f  130/25/1  131/26/1  121/27/1  119/28/1 
f  131/29/1  132/30/1  122/31/1  121/32/1 
f  44/93/1  45/94/1  41/95/1  40/96/1 
f  45/97/1  46/98/1  42/99/1  41/100/1 
f  46/101/1  133/102/1  126/103/1  42/104/1 
f  134/113/1  135/114/1  127/115/1  136/116/1 
f  135/117/1  137/118/1  128/119/1  127/120/1 
f  137/121/1  138/122/1  129/123/1  128/124/1 
f  139/125/1  52/126/1  131/127/1  130/128/1 
f  52/129/1  51/130/1  132/131/1  131/132/1 
f  140/113/1  141/114/1  44/115/1  142/116/1 
f  141/117/1  47/118/1  45/119/1  44/120/1 
f  47/121/1  48/122/1  46/123/1  45/124/1 
f  143/25/1  144/26/1  137/27/1  135/28/1 
f  145/133/1  49/134/1  52/135/1  139/136/1 
f  146/25/1  57/26/1  47/27/1  141/28/1 
f  61/29/1  64/30/1  144/31/1  143/32/1 
f  70/137/1  72/138/1  147/139/1  148/140/1 
f  72/141/1  74/142/1  149/143/1  147/144/1 
f  74/141/1  150/142/1  145/143/1  149/144/1 
f  150/141/1  151/142/1  49/143/1  145/144/1 
f  151/141/1  152/142/1  50/143/1  49/144/1 
f  152/141/1  153/142/1  53/143/1  50/144/1 
f  153/141/1  78/142/1  55/143/1  53/144/1 
f  78/145/1  77/146/1  154/147/1  55/148/1 
f  155/125/1  156/126/1  57/127/1  146/128/1 
f  156/129/1  157/130/1  58/131/1  57/132/1 
f  60/133/1  63/134/1  64/135/1  61/136/1 
f  69/149/1  71/150/1  72/151/1  70/152/1 
f  71/153/1  73/154/1  74/155/1  72/156/1 
f  73/153/1  158/154/1  150/155/1  74/156/1 
f  158/157/1  159/158/1  151/159/1  150/160/1 
f  159/157/1  160/158/1  152/159/1  151/160/1 
f  160/157/1  161/158/1  153/159/1  152/160/1 
f  161/157/1  75/158/1  78/159/1  153/160/1 
f  75/161/1  76/162/1  77/163/1  78/164/1 
f  162/133/1  163/134/1  156/135/1  155/136/1 
f  164/137/1  165/138/1  166/139/1  167/140/1 
f  165/141/1  168/142/1  169/143/1  166/144/1 
f  168/141/1  170/142/1  59/143/1  169/144/1 
f  170/141/1  171/142/1  60/143/1  59/144/1 
f  171/141/1  172/142/1  63/143/1  60/144/1 
f  172/141/1  173/142/1  65/143/1  63/144/1 
f  173/141/1  174/142/1  67/143/1  65/144/1 
f  174/141/1  175/142/1  69/143/1  67/144/1 
f  175/157/1  176/158/1  71/159/1  69/160/1 
f  176/157/1  177/158/1  73/159/1  71/160/1 
f  177/165/1  178/166/1  158/167/1  73/168/1 
f  178/157/1  179/158/1  159/159/1  158/160/1 
f  179/157/1  180/158/1  160/159/1  159/160/1 
f  180/157/1  181/158/1  161/159/1  160/160/1 
f  181/157/1  182/158/1  75/159/1  161/160/1 
f  182/157/1  183/158/1  76/159/1  75/160/1 
f  183/141/1  184/142/1  79/143/1  76/144/1 
f  184/141/1  185/142/1  81/143/1  79/144/1 
f  185/141/1  186/142/1  162/143/1  81/144/1 
f  186/141/1  187/142/1  163/143/1  162/144/1 
f  187/141/1  188/142/1  189/143/1  163/144/1 
f  188/141/1  190/142/1  191/143/1  189/144/1 
f  190/141/1  192/142/1  193/143/1  191/144/1 
f  192/145/1  194/146/1  195/147/1  193/148/1 
f  196/169/1  197/170/1  165/171/1  164/172/1 
f  197/173/1  198/174/1  168/175/1  165/176/1 
f  198/173/1  199/174/1  170/175/1  168/176/1 
f  199/173/1  200/174/1  171/175/1  170/176/1 
f  200/173/1  201/174/1  172/175/1  171/176/1 
f  201/173/1  202/174/1  173/175/1  172/176/1 
f  202/173/1  203/174/1  174/175/1  173/176/1 
f  203/173/1  204/174/1  175/175/1  174/176/1 
f  204/173/1  205/174/1  176/175/1  175/176/1 
f  205/173/1  206/174/1  177/175/1  176/176/1 
f  206/173/1  207/174/1  178/175/1  177/176/1 
f  207/173/1  208/174/1  179/175/1  178/176/1 
f  208/173/1  209/174/1  180/175/1  179/176/1 
f  209/173/1  210/174/1  181/175/1  180/176/1 
f  210/173/1  211/174/1  182/175/1  181/176/1 
f  211/173/1  212/174/1  183/175/1  182/176/1 
f  212/173/1  213/174/1  184/175/1  183/176/1 
f  213/173/1  214/174/1  185/175/1  184/176/1 
f  214/173/1  215/174/1  186/175/1  185/176/1 
f  215/173/1  216/174/1  187/175/1  186/176/1 
f  216/173/1  217/174/1  188/175/1  187/176/1 
f  217/173/1  218/174/1  190/175/1  188/176/1 
f  218/173/1  219/174/1  192/175/1  190/176/1 
f  219/177/1  220/178/1  194/179/1  192/180/1 
f  221/181/1  222/182/1  197/183/1  196/184/1 
f  222/185/1  223/186/1  198/187/1  197/188/1 
f  223/185/1  224/186/1  199/187/1  198/188/1 
f  224/189/1  225/190/1  200/191/1  199/192/1 
f  225/185/1  226/186/1  201/187/1  200/188/1 
f  226/185/1  227/186/1  202/187/1  201/188/1 
f  227/185/1  228/186/1  203/187/1  202/188/1 
f  228/185/1  229/186/1  204/187/1  203/188/1 
f  229/185/1  230/186/1  205/187/1  204/188/1 
f  230/185/1  231/186/1  206/187/1  205/188/1 
f  231/185/1  232/186/1  207/187/1  206/188/1 
f  232/185/1  233/186/1  208/187/1  207/188/1 
f  233/185/1  234/186/1  209/187/1  208/188/1 
f  234/185/1  235/186/1  210/187/1  209/188/1 
f  235/185/1  236/186/1  211/187/1  210/188/1 
f  236/185/1  237/186/1  212/187/1  211/188/1 
f  237/185/1  238/186/1  213/187/1  212/188/1 
f  238/193/1  239/194/1  214/195/1  213/196/1 
f  239/197/1  240/198/1  215/199/1  214/200/1 
f  240/185/1  241/186/1  216/187/1  215/188/1 
f  241/185/1  242/186/1  217/187/1  216/188/1 
f  242/185/1  243/186/1  218/187/1  217/188/1 
f  243/185/1  244/186/1  219/187/1  218/188/1 
f  244/201/1  245/202/1  220/203/1  219/204/1 
